<svg id="图层_1" data-name="图层 1" xmlns="http://www.w3.org/2000/svg" viewBox="0 0 214.08 62.99"><defs><style>.cls-1{fill:#e60012;}.cls-2{isolation:isolate;}.cls-3{fill:#231815;}</style></defs><title>logo</title><path class="cls-1" d="M29.81,11.64h0c-8.81.08-15.77,6-15.57,11.53A8.86,8.86,0,0,0,18,29.73l1,0.77-0.15-1.26a5.55,5.55,0,0,1-.07-0.64c-0.16-4.5,4-10.1,11-10.12V11.64h0Z" transform="translate(-0.02 0.02)"/><path class="cls-1" d="M41.2,36.12l-0.64.21a7.21,7.21,0,0,1-1.79.21c-4.87,0-7.82-3.39-10.5-8.69l-0.2-.39-6.91,1.77,0.18,0.57c2.5,7.36,7.8,12.5,12.9,12.5a7.46,7.46,0,0,0,1.89-.24,9,9,0,0,0,5.75-5.2l0.57-1.2Z" transform="translate(-0.02 0.02)"/><path class="cls-1" d="M55.8,31.84a8.76,8.76,0,0,0-4.48-6.08l-1.12-.64,0.32,1.27a6.26,6.26,0,0,1,.13.63c0.51,3.25-1.41,6.71-5.16,9.27L45,36.61l4.2,5.69,0.42-.25C54.07,39.28,56.37,35.47,55.8,31.84Z" transform="translate(-0.02 0.02)"/><path class="cls-1" d="M23.07,38.67a4.83,4.83,0,0,1-.66-0.06c-3.28-.41-6.1-3.23-7.53-7.5h0L8,33.05,8.14,33.5c1.42,5,4.45,8.25,8.12,8.71a8.83,8.83,0,0,0,.92,0h0a9.25,9.25,0,0,0,6.2-2.67l1-.88H23.07Z" transform="translate(-0.02 0.02)"/><path class="cls-1" d="M49.39,28.39a31.55,31.55,0,0,0-2.08-9.12,19.61,19.61,0,0,0-1.21-2.61L46,16.5h0c-1.61-2.68-3.89-4.44-6.54-4.73a8.82,8.82,0,0,0-7,2.73l-0.94.89h1.93c4.48,0.5,7.93,5.35,8.61,12v0.42l7.34,0.79A0.71,0.71,0,0,0,49.39,28.39Z" transform="translate(-0.02 0.02)"/><path class="cls-1" d="M36.27,8.65l2.94-6.43L38.78,2a14.5,14.5,0,0,0-6.87-2,7.89,7.89,0,0,0-5,1.61A8.63,8.63,0,0,0,23.8,8.22,13.42,13.42,0,0,1,36.27,8.65Z" transform="translate(-0.02 0.02)"/><path class="cls-1" d="M15.4,50.7H6.9c-1.5,0-2.26.56-2.26,1.64a0.93,0.93,0,0,0,.08.43,1.21,1.21,0,0,0,1.2.44h4.35a8.22,8.22,0,0,1,3.79.69,3.72,3.72,0,0,1,1.65,1.72A5.43,5.43,0,0,1,16.15,58a4.15,4.15,0,0,1-1.45,3.54,7.31,7.31,0,0,1-4.39,1.08H0.67V59H9.29a3.69,3.69,0,0,0,1.64-.26,1,1,0,0,0,.6-1.05A1.3,1.3,0,0,0,11.38,57l-0.05-.07A2.53,2.53,0,0,0,10,56.72H6.13c-2.94,0-4.82-.91-5.67-2.66A5.45,5.45,0,0,1,0,51.8q0-4.69,5.87-4.68h9.52V50.7h0Z" transform="translate(-0.02 0.02)"/><path class="cls-1" d="M35.46,55.12q0,7.84-8.23,7.85-6,0-7.89-4.16a9.75,9.75,0,0,1-.83-4.16c0-2.51.59-4.42,1.79-5.69s3.47-2.08,6.41-2.08c4.11,0,6.76,1.31,8,3.91A10.25,10.25,0,0,1,35.46,55.12Zm-8.26-4.8c-2.63,0-4,1.57-4,4.72a7.23,7.23,0,0,0,.48,3,0.54,0.54,0,0,0,.09.19c0.46,0.81,1.43,1.22,2.88,1.22A3.54,3.54,0,0,0,29.85,58a6.1,6.1,0,0,0,.76-3.37,6.64,6.64,0,0,0-.5-2.87A2.89,2.89,0,0,0,29.6,51,3.54,3.54,0,0,0,27.2,50.32Z" transform="translate(-0.02 0.02)"/><path class="cls-1" d="M42,62.63H37.35V47.12H42V62.63Z" transform="translate(-0.02 0.02)"/><path class="cls-1" d="M61.81,62.63H57.2l-5.89-9.54v9.54H46.82V47.12h5l5.58,9v-9h4.37V62.63h0Z" transform="translate(-0.02 0.02)"/><g class="cls-2"><g class="cls-2"><path class="cls-3" d="M71,21.89h8.85V19.48H72.49V16.83h7.39V14.47l-7,.23q-0.22-1.06-.66-2.71,10.94-.14,16.66-0.58l0.88,2.65-6.84.3v2.47h6.56v2.65H82.91v2.41h8V24.6h-8V27a3.87,3.87,0,0,1-.37,1.72,2.48,2.48,0,0,1-1.08,1.13,4.25,4.25,0,0,1-1.21.47q-0.5.08-4.3,0.16-0.36-1.71-.68-3,2.07,0.16,3.19.16a1.29,1.29,0,0,0,1.42-1.49V24.6H71V21.89Z" transform="translate(-0.02 0.02)"/><path class="cls-3" d="M93.7,16.57l2.75,0.62A61.46,61.46,0,0,1,94.21,26l-2.67-1Q92.68,21.41,93.7,16.57ZM105,23.46q1.81,0.74,3,1.14-0.14,1-.52,2.55a4.33,4.33,0,0,1-.89,2.07,3.23,3.23,0,0,1-1.28.7,6.51,6.51,0,0,1-1.85.23h-3.29q-3.37,0-3.37-3.41V15.19h3V25.82a1.55,1.55,0,0,0,1.79,1.73h1a2.7,2.7,0,0,0,1.4-.31,1.31,1.31,0,0,0,.62-0.89Q104.8,25.76,105,23.46Zm-3.73-12.7Q103.06,13,105.06,16l-2.67,1.65A58.06,58.06,0,0,0,99,12.18Zm7.42,6.14a68.26,68.26,0,0,1,2.81,6.6l-2.77,1.14A67.79,67.79,0,0,0,106.07,18Z" transform="translate(-0.02 0.02)"/><path class="cls-3" d="M115.36,29.39h-2.41V21.55h4.13V20h-4.92V17.72h4.92V15.93h-2.16q-0.25.88-.53,1.65-0.86-.38-2.09-0.82a39.54,39.54,0,0,0,1.36-5.18L115.86,12l-0.34,1.63h1.56V10.85h2.65v2.79h4v2.29h-4v1.79h4.6V20h-4.6v1.54h4.13V27a2.93,2.93,0,0,1-.47,1.76,1.8,1.8,0,0,1-1.49.67l-1.48,0q-0.2-1.08-.56-2.51a8.63,8.63,0,0,0,1,.06,0.56,0.56,0,0,0,.6-0.66V23.86h-1.73V30.7h-2.65V23.86h-1.73v5.54Zm9.57-17h2.45V25.86h-2.45V12.44Zm3.59-1.57h2.57V27.45a3.27,3.27,0,0,1-.69,2.27,2.62,2.62,0,0,1-2,.8q-1.26,0-2.91,0-0.16-1.18-.52-2.83,1.58,0.1,2.47.1a1,1,0,0,0,1-1.24V10.87Z" transform="translate(-0.02 0.02)"/><path class="cls-3" d="M136.09,19.4l1.46-.06q0.68-.94,1.46-2.07l2.27,1.18q-2.07,2.65-4.29,5.16,2-.26,3.63-0.52-0.22,1.42-.32,2.41-3.81.48-6,.92l-0.78-2.33a10.62,10.62,0,0,0,2.29-2.35l-2.41.2-0.74-2q1.18-.52,3.75-4.82l2.35,1Q137.47,17.76,136.09,19.4Zm8.49-8.51h2.73v1.46h5.26v2.37h-5.26v1.06h-2.73V14.73h-3.85v1H138v-1h-5.3V12.36H138V10.89h2.73v1.46h3.85V10.89ZM133.32,27.77q3.39-.54,7.73-1.28-0.14,1.38-.2,2.53-3.29.54-6.92,1.26Zm6.34-6.18a28.15,28.15,0,0,0,3.53-6.12l2.49,0.84-0.5,1h6.7q-0.08,5-.24,9.63-0.24,3-3,3.17-1.5.1-4.62,0.06-0.26-1.18-.64-2.83,2.51,0.16,3.79.16,1.57,0.06,1.61-1.26Q149,23,149,19.62H144a35.46,35.46,0,0,1-2,3.23A20.19,20.19,0,0,0,139.66,21.59Zm3,0.64,1.63-1.5q1.62,1.69,3.11,3.45l-1.91,1.59Q144.11,23.9,142.69,22.23Z" transform="translate(-0.02 0.02)"/></g><g class="cls-2"><path class="cls-3" d="M71.09,52h4.07l1.14-6.5H72.37V43h4.38l0.72-4H71.81V36.48H90V39H80.48l-0.72,4h8.19v9h3v2.53H71.09V52ZM85,45.55H79.32L78.17,52H85v-6.5Z" transform="translate(-0.02 0.02)"/><path class="cls-3" d="M91.7,44.36h8.59V42l4.88-2.71H93.06V36.64H110v2.67l-6.62,4v1.1h8v2.73h-8v3.83a4.46,4.46,0,0,1-.9,3.06,3.61,3.61,0,0,1-2.82,1l-3.7,0q-0.28-1.49-.74-3.05a31.23,31.23,0,0,0,3.47.2,1.5,1.5,0,0,0,1.65-1.77V47.09H91.7V44.36Z" transform="translate(-0.02 0.02)"/><path class="cls-3" d="M117.12,41.11l1.54,1.42,1.54-1.67q1.85,1.34,3.29,2.59l-1.89,2.09q-1.08-1-2.65-2.37-0.88,1.31-1.87,2.53v9.61h-2.63v-6.7q-0.78.76-1.59,1.49Q112.63,48.86,112,47A40.17,40.17,0,0,0,117.12,41.11Zm-0.64-5.66,2.23,1.83a40.06,40.06,0,0,1-5.48,5.94,29.61,29.61,0,0,0-1-3.11A26.84,26.84,0,0,0,116.48,35.45Zm4,11a23.08,23.08,0,0,0,2.69.92q-0.74,3.31-1.77,7.77-1.44-.46-2.77-0.8A76.53,76.53,0,0,0,120.5,46.47Zm0.18-10.6q1.56,1.1,3.29,2.59l-1.81,2A41.25,41.25,0,0,0,119,37.66Zm3,6.64H132v2.61h-2.41v7.38a2.38,2.38,0,0,1-2.49,2.71q-1.12.06-2.71,0.06-0.3-1.67-.54-2.77a17.27,17.27,0,0,0,1.75.1,1.12,1.12,0,0,0,1.26-1.26V45.13h-3.19V42.52Zm0.64-5.82h7.22v2.61h-7.22V36.7Z" transform="translate(-0.02 0.02)"/><path class="cls-3" d="M137.31,48.62l2.19,1.69q-2.13,2.23-4.68,4.42-1.08-1.14-2-2A47.09,47.09,0,0,0,137.31,48.62Zm15.05-.24h-7.59V52a2.8,2.8,0,0,1-2.93,3.15q-1.32.06-3,.1a24.87,24.87,0,0,0-.66-2.93q1.24,0.08,2.43.12a1,1,0,0,0,1.18-.92V48.38h-8.89V45.85h19.49v2.53Zm-18.94-7V37.52h7.79q-0.38-1-.68-1.69l3.43-.36q0.3,0.84.68,2h7.17v3.89H149V39.87h-12.8v1.51h-2.79Zm16.25,0.42v2.53H135.59V41.79h14.09ZM147.61,49q2.21,1.52,4.86,3.43l-1.85,2.25q-2.75-2.31-4.68-3.81Z" transform="translate(-0.02 0.02)"/><path class="cls-3" d="M153.41,52.13l-0.22-2.65q1.86-.13,4.07-0.33V47.29h-3.85V44.86q0.66-2.08,1.24-4.5h-1.42V38h2q0.26-1.2.5-2.49l2.63,0.22L157.76,38h4.13v2.37h-4.75q-0.61,2.25-1.29,4.56h1.41V41.49h2.41v3.43H162v2.37h-2.33v1.62l2.61-.27q-0.1,1.14-.14,2.55l-2.47.26v3.91h-2.41V51.7ZM165.31,42h2.59q0,1.55-.15,2.92,1.74,5.67,5.49,7.56-0.76,1.1-1.73,2.69a12.24,12.24,0,0,1-4.66-5.84,13.36,13.36,0,0,1-4.64,6.14,24.11,24.11,0,0,0-2-2.33,11.87,11.87,0,0,0,3.93-4.3A16.11,16.11,0,0,0,165.31,42Zm7.55-3.69v2.41l-1.12,3.87L169.14,44l1-3.29h-5.24q-0.77,2.22-1.61,4a16.82,16.82,0,0,0-2.33-1.37,31.63,31.63,0,0,0,2.75-8l2.67,0.42q-0.34,1.28-.69,2.47h7.19Z" transform="translate(-0.02 0.02)"/><path class="cls-3" d="M185.42,44.86a13.59,13.59,0,0,0,1.88,3.44A13.72,13.72,0,0,0,189,44.9l2.26,0.82q-1.52-1.82-3.26-3.67l1.93-1.5q2.13,2.17,3.79,4.15l-2,1.63-0.39-.47a19.62,19.62,0,0,1-2.27,4.35,16.6,16.6,0,0,0,4.65,2.64,24.89,24.89,0,0,0-2,2.51,18.56,18.56,0,0,1-4.5-3.09,19,19,0,0,1-4.68,3.11q-0.63-1-1.41-2.1a1.93,1.93,0,0,1-.87,1.37,7.2,7.2,0,0,1-2.9.45,15.23,15.23,0,0,0-.7-2.73,8.16,8.16,0,0,0,1.22.1,0.94,0.94,0,0,0,1-1.14V48.82h-1.83a12,12,0,0,1-1.69,6.6,16.25,16.25,0,0,0-1.85-2.31,10.54,10.54,0,0,0,.93-3.15,52.23,52.23,0,0,0,.29-6.78V36.34h6.5v8.26a18.58,18.58,0,0,0,3.33-4L186.84,42a28.23,28.23,0,0,1-3,3.74Zm-8.23,1.57h1.75V43.86h-1.73Q177.21,45.26,177.19,46.43Zm1.75-7.53h-1.73v2.57h1.73V38.9Zm3.85,7.79a19.06,19.06,0,0,0-1.49-1.48v7.55a14.32,14.32,0,0,0,4.21-2.49,18.33,18.33,0,0,1-2.24-4Zm-1-8.69h4.3q-0.39-.75-0.89-1.61l2.63-1q0.62,1.21,1.24,2.61h4.4v2.49H181.82V38Z" transform="translate(-0.02 0.02)"/><path class="cls-3" d="M194.81,50.32h4.7V49.66h-3.89v-1.1h3.89V47.91h-4.29V46.79h4.29V46.17h-3.05V44.48h-1.32V41.81h8V41.25h-6.9V38.46h6.9V37.88H195V36.5h8.11v-1h2.45v1h8.13v1.38h-8.13v0.58h7.08v2.79h-7.08v0.56h7.93v2.61h-1.22v1.75h-3.07v0.62h4.17v1.12h-4.17v0.64h3.47v1.1h-3.47v0.66h4.64v1.22h-2.53l0.64,0.7-1.85.58a32,32,0,0,0,4,.34q-0.42,1.08-.66,1.81a19.9,19.9,0,0,1-7.55-1.93q-0.12,1-.14,1.57a60.63,60.63,0,0,0-6.24.7l-0.56-1.14a1,1,0,0,0,.58-0.7q-1.95.54-4.25,1-0.34-.82-0.78-1.79a53.74,53.74,0,0,0,7.24-1.1h-6.92V50.32Zm10-6.64h6.16V43.12H197.66v0.56h6.24v2.49H202v0.62h4.78V46.17h-1.95V43.68Zm-6.06-3.47h4.37v-0.7h-4.37v0.7Zm2.85,5V44.6h-2.79v0.64h2.79Zm0.18,7.57v0.58q2.25-.2,4-0.42A11.86,11.86,0,0,1,204,51.91Q203,52.39,201.75,52.81Zm0.2-4.25h4.78V47.91H202v0.64Zm0,1.77h4.78V49.66H202v0.66Zm8.15-10.11v-0.7h-4.55v0.7h4.55Zm-2.29,12.12,2-.78h-4A12.81,12.81,0,0,0,207.81,52.33Zm2.11-7.08V44.6h-2.81v0.64h2.81Z" transform="translate(-0.02 0.02)"/></g></g></svg>