<svg id="图层_1" style="cursor:pointer" data-name="图层 1" xmlns="http://www.w3.org/2000/svg" viewBox="0 0 171.25 62.93"><defs><style>.cls-1{fill:#e60012;}.cls-2{fill:#231815;}</style></defs><title>logo</title><path class="cls-1" d="M427.61,489.52h0c-8.81.08-15.77,6-15.57,11.53a8.86,8.86,0,0,0,3.76,6.56l1,0.77-0.15-1.26a5.55,5.55,0,0,1-.07-0.64c-0.16-4.5,4-10.1,11-10.12v-6.84Z" transform="translate(-397.8 -477.88)"/><path class="cls-1" d="M439,514l-0.64.21a7.21,7.21,0,0,1-1.79.21c-4.87,0-7.82-3.39-10.5-8.69l-0.2-.39L419,507.07l0.18,0.57c2.5,7.36,7.8,12.5,12.9,12.5a7.46,7.46,0,0,0,1.89-.24,9,9,0,0,0,5.75-5.2l0.57-1.2Z" transform="translate(-397.8 -477.88)"/><path class="cls-1" d="M453.6,509.72a8.76,8.76,0,0,0-4.48-6.08L448,503l0.32,1.27a6.27,6.27,0,0,1,.13.63c0.51,3.25-1.41,6.71-5.16,9.27l-0.44.32,4.2,5.69,0.42-.25C451.87,517.16,454.17,513.35,453.6,509.72Z" transform="translate(-397.8 -477.88)"/><path class="cls-1" d="M420.87,516.55a4.83,4.83,0,0,1-.66-0.06c-3.28-.41-6.1-3.23-7.53-7.5h0l-6.85,1.94,0.11,0.45c1.42,5,4.45,8.25,8.12,8.71a8.83,8.83,0,0,0,.92,0h0a9.25,9.25,0,0,0,6.2-2.67l1-.88Z" transform="translate(-397.8 -477.88)"/><path class="cls-1" d="M447.19,506.27a31.55,31.55,0,0,0-2.08-9.12,19.6,19.6,0,0,0-1.21-2.61l-0.11-.16h0c-1.61-2.68-3.89-4.44-6.54-4.73a8.82,8.82,0,0,0-7,2.73l-0.94.89,1.29,0,0.64,0c4.48,0.5,7.93,5.35,8.61,12l0,0.42,7.34,0.79C447.2,506.46,447.2,506.35,447.19,506.27Z" transform="translate(-397.8 -477.88)"/><path class="cls-1" d="M434.07,486.53L437,480.1l-0.43-.24a14.5,14.5,0,0,0-6.87-2,7.89,7.89,0,0,0-5,1.61,8.63,8.63,0,0,0-3.11,6.63A13.42,13.42,0,0,1,434.07,486.53Z" transform="translate(-397.8 -477.88)"/><path class="cls-1" d="M413.2,528.58h-8.5c-1.5,0-2.26.56-2.26,1.64a0.93,0.93,0,0,0,.08.43,1.21,1.21,0,0,0,1.2.44h4.35a8.22,8.22,0,0,1,3.79.69,3.72,3.72,0,0,1,1.65,1.72,5.43,5.43,0,0,1,.44,2.39,4.15,4.15,0,0,1-1.45,3.54,7.31,7.31,0,0,1-4.39,1.08h-9.64v-3.59h8.62a3.69,3.69,0,0,0,1.64-.26,1,1,0,0,0,.6-1.05,1.3,1.3,0,0,0-.15-0.73,0.63,0.63,0,0,1-.05-0.07,2.53,2.53,0,0,0-1.32-.21h-3.88c-2.94,0-4.82-.91-5.67-2.66a5.45,5.45,0,0,1-.44-2.26q0-4.69,5.87-4.68h9.52v3.58Z" transform="translate(-397.8 -477.88)"/><path class="cls-1" d="M433.26,533c0,5.23-2.75,7.85-8.23,7.85q-6,0-7.89-4.16a9.75,9.75,0,0,1-.83-4.16c0-2.51.59-4.42,1.79-5.69s3.47-2.08,6.41-2.08c4.11,0,6.76,1.31,8,3.91A10.25,10.25,0,0,1,433.26,533ZM425,528.2c-2.63,0-4,1.57-4,4.72a7.23,7.23,0,0,0,.48,3,0.54,0.54,0,0,0,.09.19c0.46,0.81,1.43,1.22,2.88,1.22a3.54,3.54,0,0,0,3.2-1.41,6.1,6.1,0,0,0,.76-3.37,6.64,6.64,0,0,0-.5-2.87,2.89,2.89,0,0,0-.51-0.79A3.54,3.54,0,0,0,425,528.2Z" transform="translate(-397.8 -477.88)"/><path class="cls-1" d="M439.79,540.51h-4.64V525h4.65Z" transform="translate(-397.8 -477.88)"/><path class="cls-1" d="M459.61,540.51H455L449.08,531v9.54h-4.49l0-15.51h5l5.58,9,0-9h4.37v15.51Z" transform="translate(-397.8 -477.88)"/><path class="cls-2" d="M471.66,501.74h10.57v-2.88h-8.82V495.7h8.82v-2.82l-8.37.28q-0.26-1.27-.79-3.24,13.06-.17,19.9-0.7l1.05,3.16-8.17.36v2.95h7.84v3.16h-7.84v2.88h9.56V505h-9.56v2.9a4.63,4.63,0,0,1-.44,2,3,3,0,0,1-1.29,1.35,5.08,5.08,0,0,1-1.45.56q-0.59.1-5.14,0.19-0.43-2-.82-3.62,2.47,0.19,3.81.19a1.54,1.54,0,0,0,1.7-1.77V505H471.66v-3.24Z" transform="translate(-397.8 -477.88)"/><path class="cls-2" d="M498.75,495.39l3.28,0.74a73.41,73.41,0,0,1-2.68,10.57l-3.19-1.17Q497.52,501.17,498.75,495.39Zm13.54,8.22q2.16,0.89,3.62,1.37-0.17,1.14-.62,3.05a5.16,5.16,0,0,1-1.06,2.48,3.84,3.84,0,0,1-1.53.84,7.75,7.75,0,0,1-2.21.28h-3.93q-4,0-4-4.08V493.73h3.55v12.71a1.85,1.85,0,0,0,2.13,2.06h1.22a3.23,3.23,0,0,0,1.68-.37,1.57,1.57,0,0,0,.74-1.07Q512,506.37,512.29,503.61Zm-4.46-15.17q2.09,2.64,4.48,6.23l-3.19,2a69.14,69.14,0,0,0-4.05-6.5Zm8.87,7.34a81.64,81.64,0,0,1,3.36,7.89L516.75,505a80.7,80.7,0,0,0-3.24-8Z" transform="translate(-397.8 -477.88)"/><path class="cls-2" d="M524.61,510.71h-2.88v-9.37h4.94v-1.85H520.8v-2.73h5.87v-2.13H524.1q-0.3,1.06-.64,2-1-.46-2.49-1a47.09,47.09,0,0,0,1.63-6.18l2.61,0.53-0.41,1.94h1.87v-3.33h3.16v3.33h4.79v2.73h-4.79v2.13h5.49v2.73h-5.49v1.85h4.94v6.5a3.49,3.49,0,0,1-.56,2.1,2.15,2.15,0,0,1-1.77.8l-1.77,0q-0.24-1.29-.67-3a10.29,10.29,0,0,0,1.17.07,0.67,0.67,0,0,0,.72-0.79v-3h-2.06v8.17h-3.16v-8.17h-2.06v6.62ZM536,490.45H539v16H536v-16Zm4.29-1.87h3.07v19.8a3.91,3.91,0,0,1-.83,2.71,3.14,3.14,0,0,1-2.34,1q-1.51,0-3.48,0-0.19-1.42-.62-3.38,1.89,0.12,2.95.12a1.22,1.22,0,0,0,1.25-1.49V488.58Z" transform="translate(-397.8 -477.88)"/><path class="cls-2" d="M549.37,498.77l1.75-.07q0.81-1.13,1.75-2.47l2.71,1.41q-2.47,3.16-5.13,6.16,2.44-.31,4.34-0.62-0.26,1.7-.38,2.88-4.55.58-7.22,1.1l-0.93-2.78a12.7,12.7,0,0,0,2.73-2.8l-2.88.24-0.89-2.4q1.41-.62,4.48-5.75l2.8,1.15Q551,496.8,549.37,498.77Zm10.14-10.16h3.26v1.75h6.28v2.83h-6.28v1.27h-3.26v-1.27h-4.6v1.25h-3.26v-1.25h-6.33v-2.83h6.33V488.6h3.26v1.75h4.6V488.6Zm-13.45,20.16q4.05-.65,9.23-1.53-0.17,1.65-.24,3-3.93.65-8.27,1.51Zm7.58-7.38a33.67,33.67,0,0,0,4.22-7.31l3,1-0.6,1.22h8q-0.1,6-.29,11.51-0.29,3.62-3.52,3.79-1.8.12-5.51,0.07-0.31-1.41-.77-3.38,3,0.19,4.53.19,1.87,0.07,1.92-1.51,0.19-3.86.24-7.93h-6.07a42.26,42.26,0,0,1-2.44,3.86A24.16,24.16,0,0,0,553.64,501.38Zm3.62,0.77,1.94-1.8q1.94,2,3.72,4.12l-2.28,1.89Q559,504.14,557.26,502.15Z" transform="translate(-397.8 -477.88)"/><path class="cls-2" d="M472.34,517.37H485a0,0,0,0,1,.05.05v0.88a0,0,0,0,1-.05.05h-6.78l-0.49,3.45H482a1.88,1.88,0,0,1,1.86,1.53v0.27q0,0.22-.93,5.36h2.3a0,0,0,0,1,.05.05v0.88a0,0,0,0,1-.05.05h-13a0,0,0,0,1-.05-0.05V529a0,0,0,0,1,.05-0.05h3.34l0.93-6.12h-3.72c-0.07,0-.11,0-0.11-0.05v-0.87a0.16,0.16,0,0,1,.11-0.11h3.94v-0.05q0-.22.49-3.34l-0.05-.05h-4.81a0,0,0,0,1-.05-0.05v-0.87A0,0,0,0,1,472.34,517.37Zm5.2,5.47q0,0.27-.93,6.07l0.11,0.05h5.14l1-5.36a0.82,0.82,0,0,0-.82-0.77h-4.48Z" transform="translate(-397.8 -477.88)"/><path class="cls-2" d="M487.88,517.48h10.39a21.56,21.56,0,0,1-3.39,5.41h4a0.16,0.16,0,0,1,.05.11v0.82a0,0,0,0,1-.05.05h-4.59v4.38a1.82,1.82,0,0,1-1.42,1.8h-2a1.23,1.23,0,0,1-.16-0.55,0.82,0.82,0,0,0-.38-0.33v-0.05h2.19a0.8,0.8,0,0,0,.88-0.77v-4.48h-6.84a0,0,0,0,1-.05-0.05V523c0-.07,0-0.11.05-0.11h7a17.34,17.34,0,0,0,3.23-4.48h-8.86a0,0,0,0,1-.05-0.05v-0.82A0,0,0,0,1,487.88,517.48Z" transform="translate(-397.8 -477.88)"/><path class="cls-2" d="M503.68,517.43a4.66,4.66,0,0,1,.66.71q-0.16.16-3.39,3h-0.05a4.81,4.81,0,0,1-.6-0.71Q500.84,519.89,503.68,517.43Zm-0.27,3.77,0.05,0.05V530a0,0,0,0,1-.05.05h-0.82l-0.05-.05q-0.06-1.59-.05-2.46v-4.21l-1.59,1.31a4.07,4.07,0,0,1-.6-0.71Q500.51,523.72,503.41,521.2Zm3,4.21a3,3,0,0,1,.77.44Q505.1,530,505,530a2.46,2.46,0,0,1-.77-0.44Q506.3,525.47,506.41,525.41Zm-1.53-7.66h0.82q0.11,0.11,1.15,2.9v0.05H506a14.79,14.79,0,0,1-1.2-2.9Zm0,4h0.82q0.11,0.11,1.15,2.9v0.05H506a14.79,14.79,0,0,1-1.2-2.9Zm3.28-3.77h4.76a0,0,0,0,1,.05.05v0.82a0,0,0,0,1-.05.05h-4.76a0,0,0,0,1-.05-0.05V518A0,0,0,0,1,508.16,518Zm0,3.5h4.76a0.16,0.16,0,0,1,.05.11v0.77a0,0,0,0,1-.05.05h-0.71a0.16,0.16,0,0,0-.05.11v5.8a1.63,1.63,0,0,1-1.42,1.64,2.57,2.57,0,0,1-.49.05H509a0,0,0,0,1-.05-0.05v-0.82c0-.07,0-0.11.05-0.11h1.42a0.84,0.84,0,0,0,.82-1v-5.47c0-.07,0-0.11-0.05-0.11h-3a0,0,0,0,1-.05-0.05v-0.77C508.11,521.51,508.13,521.47,508.16,521.47Z" transform="translate(-397.8 -477.88)"/><path class="cls-2" d="M514.62,524.15h12.14a0,0,0,0,1,.05.05V525a0,0,0,0,1-.05.05h-5.52c-0.07,0-.11,0-0.11.05v3.34a1.66,1.66,0,0,1-1.31,1.53,1.63,1.63,0,0,1-.38.05h-0.71a0,0,0,0,1-.05-0.05v-0.82c0-.07,0-0.11.05-0.11h0.77a0.77,0.77,0,0,0,.77-0.82v-3.17h-5.63a0,0,0,0,1-.05-0.05v-0.82A0,0,0,0,1,514.62,524.15Zm1.59,1.64a1.38,1.38,0,0,1,.82.22,5.42,5.42,0,0,1-.77,1.91,3.89,3.89,0,0,1-1.64,1.53,9.45,9.45,0,0,0,1.26-2.79A1.72,1.72,0,0,1,516.2,525.79Zm3.45-8.31h0.93a6.34,6.34,0,0,1,.55,1.15H525a1.73,1.73,0,0,1,1.64,1.37v0.82c0,0.07,0,.11-0.05.11h-0.82s-0.05,0-.05-0.11v-0.33a0.75,0.75,0,0,0-.82-0.87h-8.42a0.73,0.73,0,0,0-.82.77v0.44c0,0.07,0,.11-0.05.11h-0.82s-0.05,0-.05-0.11V520.6a1.82,1.82,0,0,1,1.31-1.91,1,1,0,0,1,.33-0.05h3.88A6.74,6.74,0,0,1,519.65,517.48Zm-4.21,4.16h10.5c0.07,0,.11,0,0.11.05v0.82s0,0.05-.11.05h-10.5c-0.07,0-.11,0-0.11-0.05v-0.82A0.16,0.16,0,0,1,515.44,521.64Zm9.57,4q0.22,0.38,1.59,3.77a3.5,3.5,0,0,1-.82.38q-0.77-1.64-1.64-3.77A4.4,4.4,0,0,1,525,525.69Z" transform="translate(-397.8 -477.88)"/><path class="cls-2" d="M529.82,517.43a5.21,5.21,0,0,1,.88.16L530.48,519h3.66a0,0,0,0,1,.05.05v0.88a0,0,0,0,1-.05.05h-3.83q0,0.11-.49,3H531v-2.13a0,0,0,0,1,.05-0.05h0.82a0,0,0,0,1,.05.05V523h2a0,0,0,0,1,.05.05v0.82a0,0,0,0,1-.05.05h-2v1.86q2-.66,2.13-0.66a3.55,3.55,0,0,1,.27.93l-2.41.71V530a0,0,0,0,1-.05.05h-0.82A0,0,0,0,1,531,530v-2.9H531l-2.41.77a7.85,7.85,0,0,1-.27-0.87q0.66-.27,2.73-0.87v-2.19h-2.24a0,0,0,0,1-.05-0.05q0.6-3.72.6-3.83h-0.82a0,0,0,0,1-.05-0.05v-0.87a0,0,0,0,1,.05-0.05h1a8.61,8.61,0,0,0,.27-1.53Zm7.22,3.34a1.54,1.54,0,0,1,.88.22l-0.22,1.53,3.39,7.05a2.91,2.91,0,0,1-.87.44q-2.79-5.8-2.84-6a20.14,20.14,0,0,1-1.31,3.61,6.08,6.08,0,0,1-1.53,2,3,3,0,0,1-.55.33l-0.05-.05a14.62,14.62,0,0,0,2-4.21,36.77,36.77,0,0,0,1-5H537Zm-0.93-3h0.05L535.78,519h5.14a0,0,0,0,1,.05.05q-1.09,3.39-1.15,3.45a3.24,3.24,0,0,1-.87-0.33l0.71-2.19h-5.14a0,0,0,0,1-.05-0.05Z" transform="translate(-397.8 -477.88)"/><path class="cls-2" d="M544,517.54h1.48a1.35,1.35,0,0,1,1.31,1.2v9.9a1.45,1.45,0,0,1-1,1.37h-0.93c-0.07,0-.11,0-0.11-0.05v-0.82a0.15,0.15,0,0,1,.11-0.05h0.55q0.49,0,.49-0.77v-2c0-.07,0-0.11-0.05-0.11h-2.46q-0.11,3.55-.11,3.83h-0.93a0,0,0,0,1-.05-0.05q0.38-11.48.49-11.48A1.37,1.37,0,0,1,544,517.54Zm-0.49,4.87q-0.11,2.24-.11,2.84h2.46V522.4h-2.35Zm0-1h2.35v-2.19c0-.51-0.13-0.77-0.38-0.77H544q-0.38,0-.38,1Q543.55,521,543.55,521.42Zm9.08-1.48h0.11a29.4,29.4,0,0,1,2.08,3.06,2.4,2.4,0,0,1-.82.49,2.59,2.59,0,0,0-.44-0.66,19.28,19.28,0,0,1-1.8,3l3,3.66q-0.11.11-.71,0.6-2.84-3.45-2.9-3.45-2.08,2.84-3.55,3.39h-0.05a13.4,13.4,0,0,0,2.35-3,5.06,5.06,0,0,0,.66-1.2l-2.3-2.68-0.38.38h-0.05a3,3,0,0,1-.66-0.55v-0.11a18.12,18.12,0,0,0,2-2.79,0,0,0,0,1,.05-0.05,5.85,5.85,0,0,0,.77.38v0.11a16.08,16.08,0,0,1-1.15,1.8l2.24,2.73h0.05q1-1.64,1.8-3.06-0.22-.38-1-1.48A3.46,3.46,0,0,1,552.63,519.94Zm-2.52-2.46h0.82a6.78,6.78,0,0,1,.6,1.15h3.12a0.16,0.16,0,0,1,.11.11v0.82s0,0.05-.11.05h-7.05c-0.07,0-.11,0-0.11-0.05v-0.82a0.1,0.1,0,0,1,.11-0.11h3L550,517.54Z" transform="translate(-397.8 -477.88)"/><path class="cls-2" d="M558.2,522.4h3.5q0.87,0.11.88,0.66s0.05,0.05.05,0.16v0.44a0.88,0.88,0,0,1-1,.82h-1.8v0.27h6.07v-0.27h-1.8a0.85,0.85,0,0,1-.87-0.6l-0.05-.22v-0.49a0.83,0.83,0,0,1,.93-0.77h3.39a0.9,0.9,0,0,1,.93.71v0.38a0.91,0.91,0,0,1-.93,1h-0.82v0.22a0.15,0.15,0,0,0,.11.05h1.75a0,0,0,0,1,.05.05v0.66a0,0,0,0,1-.05.05h-1.86v0.27h1.86a0.16,0.16,0,0,1,.05.11v0.6c0,0.07,0,.11-0.05.11h-1.75c-0.07,0-.11,0-0.11.05v0.22h1.86a0,0,0,0,1,.05.05v0.71a0,0,0,0,1-.05.05H565.2v0.05a21.69,21.69,0,0,1,2.13.88,1.69,1.69,0,0,1,.44-0.77,3.62,3.62,0,0,0,.6.33,6.1,6.1,0,0,1-.27.71,2.94,2.94,0,0,1,.93.44,1.16,1.16,0,0,1-.33.66q-5.58-2.3-5.63-2.3H559.3V529a0.16,0.16,0,0,0,.11.11h2.68a0,0,0,0,1,.05.05v0.66a0,0,0,0,1-.05.05h-2.68a0.93,0.93,0,0,1-.93-1.15v-0.38a3.48,3.48,0,0,1-1.7.88h-0.05v-0.05a4.88,4.88,0,0,0,1.26-1.48h-0.71a0,0,0,0,1-.05-0.05v-0.71a0,0,0,0,1,.05-0.05h1.8v-0.27h-1.8s-0.05,0-.05-0.11v-0.6c0-.07,0-0.11.05-0.11h1.8v-0.27h-1.8a0,0,0,0,1-.05-0.05v-0.66a0,0,0,0,1,.05-0.05h1.8v-0.27h-0.71a1,1,0,0,1-1-.87v-0.27A0.87,0.87,0,0,1,558.2,522.4Zm4.38-5h0.66a0,0,0,0,1,.05.05v0.22h5.63a0,0,0,0,1,.05.05v0.49c0,0.07,0,.11-0.05.11h-5.63v0.44h4.43a0.91,0.91,0,0,1,.93,1v0.16a0.85,0.85,0,0,1-.82.93h-4.54v0.33H568a0.89,0.89,0,0,1,.93.93v0.38a0,0,0,0,1-.05.05h-0.71a0,0,0,0,1-.05-0.05V522L568,522H557.82l-0.16.05v0.49s0,0.05-.11.05h-0.66a0,0,0,0,1-.05-0.05v-0.33a0.84,0.84,0,0,1,.66-0.93,0.43,0.43,0,0,1,.27-0.05h4.76v-0.33H558a0.91,0.91,0,0,1-.87-0.93v-0.16a0.94,0.94,0,0,1,1-1h4.43v-0.44h-5.63s-0.05,0-.05-0.11v-0.49a0,0,0,0,1,.05-0.05h5.63v-0.22A0,0,0,0,1,562.58,517.43Zm-4.65,2.19v0.44a0,0,0,0,0,.05.05h4.54v-0.55H558A0,0,0,0,0,557.93,519.62Zm0.16,3.61v0.33a0.19,0.19,0,0,0,.22.22h3.34l0.16-.05v-0.55s0-.05-0.11-0.05h-3.5A0.16,0.16,0,0,0,558.09,523.22Zm1.75,2.3v0.27h6.07v-0.27h-6.07Zm0,1.09v0.27h6.07v-0.27h-6.07Zm3.45-7.05v0.55h4.48a0,0,0,0,0,.05-0.05v-0.44a0,0,0,0,0-.05-0.05h-4.48Zm0.71,3.61v0.55l0.16,0.05h3.34l0.16-.05v-0.55s0-.05-0.11-0.05h-3.5A0,0,0,0,0,564,523.17Z" transform="translate(-397.8 -477.88)"/></svg>