<svg id="图层_1" data-name="图层 1" style="cursor:pointer;" xmlns="http://www.w3.org/2000/svg" viewBox="0 0 212.19 64.32"><defs><style>.cls-1{fill:#d20012;}.cls-2{font-size:20.22px;fill:#8c6f4b;font-family:Microsoft YaHei;}</style></defs><title>logo</title><path class="cls-1" d="M-4005.66-2582.6h0c-8.67.07-15.52,5.86-15.32,11.35a8.72,8.72,0,0,0,3.7,6.46l1,0.75-0.15-1.24a5.58,5.58,0,0,1-.07-0.63c-0.15-4.43,4-9.93,10.86-10v-6.73Z" transform="translate(4034.98 2594.05)"/><path class="cls-1" d="M-3994.41-2558.56l-0.63.21a7.13,7.13,0,0,1-1.76.21c-4.79,0-7.69-3.34-10.33-8.55l-0.2-.38-6.8,1.74,0.17,0.56c2.46,7.24,7.68,12.3,12.7,12.3a7.34,7.34,0,0,0,1.86-.24,8.85,8.85,0,0,0,5.66-5.11l0.56-1.18Z" transform="translate(4034.98 2594.05)"/><path class="cls-1" d="M-3980.07-2562.72a8.63,8.63,0,0,0-4.41-6l-1.09-.67,0.31,1.25c0.06,0.23.11,0.45,0.13,0.62,0.5,3.2-1.39,6.61-5.08,9.12l-0.44.31,4.13,5.6,0.41-.25C-3981.77-2555.4-3979.52-2559.15-3980.07-2562.72Z" transform="translate(4034.98 2594.05)"/><path class="cls-1" d="M-4012.29-2556a4.79,4.79,0,0,1-.65-0.06c-3.22-.41-6-3.17-7.41-7.39h0l-6.74,1.9,0.11,0.45c1.39,4.91,4.38,8.12,8,8.57a8.55,8.55,0,0,0,.91,0h0a9.1,9.1,0,0,0,6.1-2.63l1-.87Z" transform="translate(4034.98 2594.05)"/><path class="cls-1" d="M-3986.38-2566.12a31,31,0,0,0-2-9,19.21,19.21,0,0,0-1.19-2.56l-0.11-.16h0c-1.59-2.64-3.83-4.37-6.44-4.66a8.68,8.68,0,0,0-6.93,2.68l-0.92.88h1.27l0.63,0c4.41,0.49,7.8,5.26,8.47,11.82l0,0.41,7.22,0.77C-3986.38-2565.93-3986.38-2566-3986.38-2566.12Z" transform="translate(4034.98 2594.05)"/><path class="cls-1" d="M-3999.3-2585.54l2.89-6.33-0.42-.23a14.27,14.27,0,0,0-6.76-1.94,7.76,7.76,0,0,0-4.92,1.58,8.49,8.49,0,0,0-3.06,6.53A13.21,13.21,0,0,1-3999.3-2585.54Z" transform="translate(4034.98 2594.05)"/><path class="cls-1" d="M-4019.84-2544.17h-8.37c-1.48,0-2.22.55-2.22,1.61a0.91,0.91,0,0,0,.08.42,1.19,1.19,0,0,0,1.18.43h4.28a8.09,8.09,0,0,1,3.73.68,3.66,3.66,0,0,1,1.62,1.7,5.35,5.35,0,0,1,.44,2.35,4.09,4.09,0,0,1-1.42,3.49,7.19,7.19,0,0,1-4.32,1.06h-9.49V-2536h8.48a3.64,3.64,0,0,0,1.61-.26,1,1,0,0,0,.59-1,1.27,1.27,0,0,0-.15-0.72,0.63,0.63,0,0,1-.05-0.06,2.49,2.49,0,0,0-1.3-.21H-4029c-2.89,0-4.75-.89-5.58-2.62a5.37,5.37,0,0,1-.44-2.22c0-3.07,1.93-4.61,5.78-4.61h9.37v3.52Z" transform="translate(4034.98 2594.05)"/><path class="cls-1" d="M-4000.09-2539.85c0,5.15-2.7,7.72-8.1,7.72q-5.88,0-7.77-4.09a9.6,9.6,0,0,1-.81-4.09c0-2.47.58-4.35,1.76-5.6s3.41-2.05,6.31-2.05c4,0,6.65,1.29,7.85,3.85A10.09,10.09,0,0,1-4000.09-2539.85Zm-8.11-4.69c-2.58,0-3.9,1.55-3.9,4.64a7.12,7.12,0,0,0,.47,3,0.53,0.53,0,0,0,.09.18c0.45,0.8,1.41,1.2,2.84,1.2a3.48,3.48,0,0,0,3.15-1.39,6,6,0,0,0,.74-3.32,6.55,6.55,0,0,0-.49-2.82,2.85,2.85,0,0,0-.51-0.78A3.48,3.48,0,0,0-4008.21-2544.54Z" transform="translate(4034.98 2594.05)"/><path class="cls-1" d="M-3993.67-2532.42h-4.57v-15.27h4.58Z" transform="translate(4034.98 2594.05)"/><path class="cls-1" d="M-3974.16-2532.42h-4.57l-5.8-9.39v9.39h-4.42l0-15.27h5l5.49,8.85,0-8.85h4.3v15.27Z" transform="translate(4034.98 2594.05)"/><text class="cls-2" transform="translate(70.65 34.89)">手心制药<tspan x="0" y="24.26">五子衍宗软胶囊</tspan></text></svg>